<mxfile host="app.diagrams.net" modified="2023-11-03T01:40:31.020Z" agent="Mozilla/5.0 (Windows NT 10.0; Win64; x64; rv:109.0) Gecko/20100101 Firefox/119.0" etag="dJDNR5FIZQ65FWcoTUHS" version="22.0.8" type="google">
  <diagram name="Page-1" id="O3OPINNU6DTvj6AXow6C">
    <mxGraphModel grid="1" page="1" gridSize="10" guides="1" tooltips="1" connect="1" arrows="1" fold="1" pageScale="1" pageWidth="850" pageHeight="1100" math="0" shadow="0">
      <root>
        <mxCell id="0" />
        <mxCell id="1" parent="0" />
        <mxCell id="JwIK93oX0tThSIfr5X6w-5" style="edgeStyle=orthogonalEdgeStyle;rounded=0;orthogonalLoop=1;jettySize=auto;html=1;entryX=0.5;entryY=0;entryDx=0;entryDy=0;" edge="1" parent="1" source="JwIK93oX0tThSIfr5X6w-1" target="JwIK93oX0tThSIfr5X6w-6">
          <mxGeometry relative="1" as="geometry">
            <mxPoint x="230" y="220" as="targetPoint" />
          </mxGeometry>
        </mxCell>
        <mxCell id="JwIK93oX0tThSIfr5X6w-9" value="True" style="edgeLabel;html=1;align=center;verticalAlign=middle;resizable=0;points=[];" connectable="0" vertex="1" parent="JwIK93oX0tThSIfr5X6w-5">
          <mxGeometry x="-0.3467" relative="1" as="geometry">
            <mxPoint as="offset" />
          </mxGeometry>
        </mxCell>
        <mxCell id="JwIK93oX0tThSIfr5X6w-12" style="edgeStyle=orthogonalEdgeStyle;rounded=0;orthogonalLoop=1;jettySize=auto;html=1;entryX=0.5;entryY=0;entryDx=0;entryDy=0;" edge="1" parent="1" source="JwIK93oX0tThSIfr5X6w-1" target="JwIK93oX0tThSIfr5X6w-10">
          <mxGeometry relative="1" as="geometry" />
        </mxCell>
        <mxCell id="JwIK93oX0tThSIfr5X6w-1" value="1" style="ellipse;whiteSpace=wrap;html=1;aspect=fixed;fontSize=32;" vertex="1" parent="1">
          <mxGeometry x="300" y="110" width="80" height="80" as="geometry" />
        </mxCell>
        <mxCell id="JwIK93oX0tThSIfr5X6w-4" value="!unit || num === 0" style="text;whiteSpace=wrap;" vertex="1" parent="1">
          <mxGeometry x="210" y="100" width="130" height="40" as="geometry" />
        </mxCell>
        <mxCell id="JwIK93oX0tThSIfr5X6w-6" value="2" style="ellipse;whiteSpace=wrap;html=1;aspect=fixed;fontSize=32;strokeColor=#FF0000;" vertex="1" parent="1">
          <mxGeometry x="180" y="220" width="80" height="80" as="geometry" />
        </mxCell>
        <mxCell id="JwIK93oX0tThSIfr5X6w-204" style="edgeStyle=orthogonalEdgeStyle;rounded=0;orthogonalLoop=1;jettySize=auto;html=1;entryX=0.5;entryY=0;entryDx=0;entryDy=0;" edge="1" parent="1" source="JwIK93oX0tThSIfr5X6w-10" target="JwIK93oX0tThSIfr5X6w-203">
          <mxGeometry relative="1" as="geometry" />
        </mxCell>
        <mxCell id="JwIK93oX0tThSIfr5X6w-205" value="True" style="edgeLabel;html=1;align=center;verticalAlign=middle;resizable=0;points=[];" connectable="0" vertex="1" parent="JwIK93oX0tThSIfr5X6w-204">
          <mxGeometry x="-0.1914" y="-2" relative="1" as="geometry">
            <mxPoint as="offset" />
          </mxGeometry>
        </mxCell>
        <mxCell id="JwIK93oX0tThSIfr5X6w-207" style="edgeStyle=orthogonalEdgeStyle;rounded=0;orthogonalLoop=1;jettySize=auto;html=1;entryX=0.5;entryY=0;entryDx=0;entryDy=0;" edge="1" parent="1" source="JwIK93oX0tThSIfr5X6w-10" target="JwIK93oX0tThSIfr5X6w-206">
          <mxGeometry relative="1" as="geometry" />
        </mxCell>
        <mxCell id="JwIK93oX0tThSIfr5X6w-208" value="False" style="edgeLabel;html=1;align=center;verticalAlign=middle;resizable=0;points=[];" connectable="0" vertex="1" parent="JwIK93oX0tThSIfr5X6w-207">
          <mxGeometry x="-0.0019" y="2" relative="1" as="geometry">
            <mxPoint as="offset" />
          </mxGeometry>
        </mxCell>
        <mxCell id="JwIK93oX0tThSIfr5X6w-10" value="3" style="ellipse;whiteSpace=wrap;html=1;aspect=fixed;fontSize=32;" vertex="1" parent="1">
          <mxGeometry x="300" y="290" width="80" height="80" as="geometry" />
        </mxCell>
        <mxCell id="JwIK93oX0tThSIfr5X6w-11" value="unit === &#39;millisecond&#39;" style="text;html=1;align=center;verticalAlign=middle;resizable=0;points=[];autosize=1;strokeColor=none;fillColor=none;" vertex="1" parent="1">
          <mxGeometry x="370" y="280" width="140" height="30" as="geometry" />
        </mxCell>
        <mxCell id="JwIK93oX0tThSIfr5X6w-203" value="4" style="ellipse;whiteSpace=wrap;html=1;aspect=fixed;fontSize=32;strokeColor=#FF0000;" vertex="1" parent="1">
          <mxGeometry x="190" y="360" width="80" height="80" as="geometry" />
        </mxCell>
        <mxCell id="JwIK93oX0tThSIfr5X6w-211" style="edgeStyle=orthogonalEdgeStyle;rounded=0;orthogonalLoop=1;jettySize=auto;html=1;" edge="1" parent="1" source="JwIK93oX0tThSIfr5X6w-206" target="JwIK93oX0tThSIfr5X6w-210">
          <mxGeometry relative="1" as="geometry" />
        </mxCell>
        <mxCell id="JwIK93oX0tThSIfr5X6w-212" value="True" style="edgeLabel;html=1;align=center;verticalAlign=middle;resizable=0;points=[];" connectable="0" vertex="1" parent="JwIK93oX0tThSIfr5X6w-211">
          <mxGeometry x="-0.5247" relative="1" as="geometry">
            <mxPoint as="offset" />
          </mxGeometry>
        </mxCell>
        <mxCell id="JwIK93oX0tThSIfr5X6w-216" style="edgeStyle=orthogonalEdgeStyle;rounded=0;orthogonalLoop=1;jettySize=auto;html=1;entryX=1;entryY=0.5;entryDx=0;entryDy=0;" edge="1" parent="1" source="JwIK93oX0tThSIfr5X6w-206" target="JwIK93oX0tThSIfr5X6w-214">
          <mxGeometry relative="1" as="geometry">
            <Array as="points">
              <mxPoint x="490" y="470" />
              <mxPoint x="490" y="650" />
            </Array>
          </mxGeometry>
        </mxCell>
        <mxCell id="JwIK93oX0tThSIfr5X6w-206" value="5" style="ellipse;whiteSpace=wrap;html=1;aspect=fixed;fontSize=32;" vertex="1" parent="1">
          <mxGeometry x="390" y="430" width="80" height="80" as="geometry" />
        </mxCell>
        <mxCell id="JwIK93oX0tThSIfr5X6w-209" value="unit === &#39;fortnight&#39;" style="text;whiteSpace=wrap;" vertex="1" parent="1">
          <mxGeometry x="440" y="410" width="130" height="40" as="geometry" />
        </mxCell>
        <mxCell id="JwIK93oX0tThSIfr5X6w-215" style="edgeStyle=orthogonalEdgeStyle;rounded=0;orthogonalLoop=1;jettySize=auto;html=1;entryX=0;entryY=0.5;entryDx=0;entryDy=0;" edge="1" parent="1" source="JwIK93oX0tThSIfr5X6w-210" target="JwIK93oX0tThSIfr5X6w-214">
          <mxGeometry relative="1" as="geometry">
            <Array as="points">
              <mxPoint x="330" y="650" />
            </Array>
          </mxGeometry>
        </mxCell>
        <mxCell id="JwIK93oX0tThSIfr5X6w-210" value="6" style="ellipse;whiteSpace=wrap;html=1;aspect=fixed;fontSize=32;" vertex="1" parent="1">
          <mxGeometry x="290" y="520" width="80" height="80" as="geometry" />
        </mxCell>
        <mxCell id="JwIK93oX0tThSIfr5X6w-213" value="num *= 2&#xa;unit = &#39;week&#39;" style="text;whiteSpace=wrap;" vertex="1" parent="1">
          <mxGeometry x="240" y="490" width="70" height="40" as="geometry" />
        </mxCell>
        <mxCell id="JwIK93oX0tThSIfr5X6w-220" style="edgeStyle=orthogonalEdgeStyle;rounded=0;orthogonalLoop=1;jettySize=auto;html=1;entryX=0.5;entryY=0;entryDx=0;entryDy=0;" edge="1" parent="1" source="JwIK93oX0tThSIfr5X6w-214" target="JwIK93oX0tThSIfr5X6w-219">
          <mxGeometry relative="1" as="geometry">
            <Array as="points">
              <mxPoint x="320" y="680" />
            </Array>
          </mxGeometry>
        </mxCell>
        <mxCell id="JwIK93oX0tThSIfr5X6w-221" value="True" style="edgeLabel;html=1;align=center;verticalAlign=middle;resizable=0;points=[];" connectable="0" vertex="1" parent="JwIK93oX0tThSIfr5X6w-220">
          <mxGeometry x="-0.3774" y="2" relative="1" as="geometry">
            <mxPoint as="offset" />
          </mxGeometry>
        </mxCell>
        <mxCell id="JwIK93oX0tThSIfr5X6w-224" style="edgeStyle=orthogonalEdgeStyle;rounded=0;orthogonalLoop=1;jettySize=auto;html=1;" edge="1" parent="1" source="JwIK93oX0tThSIfr5X6w-214" target="JwIK93oX0tThSIfr5X6w-223">
          <mxGeometry relative="1" as="geometry">
            <Array as="points">
              <mxPoint x="550" y="680" />
            </Array>
          </mxGeometry>
        </mxCell>
        <mxCell id="JwIK93oX0tThSIfr5X6w-225" value="False" style="edgeLabel;html=1;align=center;verticalAlign=middle;resizable=0;points=[];" connectable="0" vertex="1" parent="JwIK93oX0tThSIfr5X6w-224">
          <mxGeometry x="-0.3454" y="1" relative="1" as="geometry">
            <mxPoint as="offset" />
          </mxGeometry>
        </mxCell>
        <mxCell id="JwIK93oX0tThSIfr5X6w-214" value="7" style="ellipse;whiteSpace=wrap;html=1;aspect=fixed;fontSize=32;" vertex="1" parent="1">
          <mxGeometry x="390" y="610" width="80" height="80" as="geometry" />
        </mxCell>
        <mxCell id="JwIK93oX0tThSIfr5X6w-218" value="if (ms[unit])" style="text;whiteSpace=wrap;" vertex="1" parent="1">
          <mxGeometry x="395" y="590" width="70" height="20" as="geometry" />
        </mxCell>
        <mxCell id="JwIK93oX0tThSIfr5X6w-250" style="edgeStyle=orthogonalEdgeStyle;rounded=0;orthogonalLoop=1;jettySize=auto;html=1;entryX=0;entryY=0.5;entryDx=0;entryDy=0;" edge="1" parent="1" source="JwIK93oX0tThSIfr5X6w-219" target="JwIK93oX0tThSIfr5X6w-245">
          <mxGeometry relative="1" as="geometry">
            <Array as="points">
              <mxPoint x="320" y="1280" />
            </Array>
          </mxGeometry>
        </mxCell>
        <mxCell id="JwIK93oX0tThSIfr5X6w-219" value="8" style="ellipse;whiteSpace=wrap;html=1;aspect=fixed;fontSize=32;" vertex="1" parent="1">
          <mxGeometry x="280" y="740" width="80" height="80" as="geometry" />
        </mxCell>
        <mxCell id="JwIK93oX0tThSIfr5X6w-222" value="s.epoch += ms[unit] * num" style="text;whiteSpace=wrap;" vertex="1" parent="1">
          <mxGeometry x="170" y="720" width="150" height="20" as="geometry" />
        </mxCell>
        <mxCell id="JwIK93oX0tThSIfr5X6w-232" style="edgeStyle=orthogonalEdgeStyle;rounded=0;orthogonalLoop=1;jettySize=auto;html=1;entryX=0.5;entryY=0;entryDx=0;entryDy=0;" edge="1" parent="1" source="JwIK93oX0tThSIfr5X6w-223" target="JwIK93oX0tThSIfr5X6w-231">
          <mxGeometry relative="1" as="geometry" />
        </mxCell>
        <mxCell id="JwIK93oX0tThSIfr5X6w-233" value="False" style="edgeLabel;html=1;align=center;verticalAlign=middle;resizable=0;points=[];" connectable="0" vertex="1" parent="JwIK93oX0tThSIfr5X6w-232">
          <mxGeometry x="-0.6583" y="-1" relative="1" as="geometry">
            <mxPoint as="offset" />
          </mxGeometry>
        </mxCell>
        <mxCell id="JwIK93oX0tThSIfr5X6w-223" value="9" style="ellipse;whiteSpace=wrap;html=1;aspect=fixed;fontSize=32;" vertex="1" parent="1">
          <mxGeometry x="510" y="740" width="80" height="80" as="geometry" />
        </mxCell>
        <mxCell id="JwIK93oX0tThSIfr5X6w-226" value="unit === &#39;week&#39; || unit === &#39;weekend&#39;" style="text;whiteSpace=wrap;" vertex="1" parent="1">
          <mxGeometry x="560" y="720" width="200" height="20" as="geometry" />
        </mxCell>
        <mxCell id="JwIK93oX0tThSIfr5X6w-249" style="edgeStyle=orthogonalEdgeStyle;rounded=0;orthogonalLoop=1;jettySize=auto;html=1;entryX=0;entryY=0;entryDx=0;entryDy=0;" edge="1" parent="1" source="JwIK93oX0tThSIfr5X6w-227" target="JwIK93oX0tThSIfr5X6w-245">
          <mxGeometry relative="1" as="geometry">
            <Array as="points">
              <mxPoint x="450" y="1252" />
            </Array>
          </mxGeometry>
        </mxCell>
        <mxCell id="JwIK93oX0tThSIfr5X6w-227" value="10" style="ellipse;whiteSpace=wrap;html=1;aspect=fixed;fontSize=32;" vertex="1" parent="1">
          <mxGeometry x="410" y="860" width="80" height="80" as="geometry" />
        </mxCell>
        <mxCell id="JwIK93oX0tThSIfr5X6w-228" style="edgeStyle=orthogonalEdgeStyle;rounded=0;orthogonalLoop=1;jettySize=auto;html=1;entryX=0.441;entryY=0.016;entryDx=0;entryDy=0;entryPerimeter=0;" edge="1" parent="1" source="JwIK93oX0tThSIfr5X6w-223" target="JwIK93oX0tThSIfr5X6w-227">
          <mxGeometry relative="1" as="geometry" />
        </mxCell>
        <mxCell id="JwIK93oX0tThSIfr5X6w-229" value="True" style="edgeLabel;html=1;align=center;verticalAlign=middle;resizable=0;points=[];" connectable="0" vertex="1" parent="JwIK93oX0tThSIfr5X6w-228">
          <mxGeometry x="-0.4755" y="-2" relative="1" as="geometry">
            <mxPoint as="offset" />
          </mxGeometry>
        </mxCell>
        <mxCell id="JwIK93oX0tThSIfr5X6w-230" value="s.epoch += ms.day * (num * 7)" style="text;whiteSpace=wrap;" vertex="1" parent="1">
          <mxGeometry x="450" y="840" width="170" height="30" as="geometry" />
        </mxCell>
        <mxCell id="JwIK93oX0tThSIfr5X6w-240" style="edgeStyle=orthogonalEdgeStyle;rounded=0;orthogonalLoop=1;jettySize=auto;html=1;entryX=0.5;entryY=0;entryDx=0;entryDy=0;" edge="1" parent="1" source="JwIK93oX0tThSIfr5X6w-231" target="JwIK93oX0tThSIfr5X6w-239">
          <mxGeometry relative="1" as="geometry" />
        </mxCell>
        <mxCell id="JwIK93oX0tThSIfr5X6w-231" value="11" style="ellipse;whiteSpace=wrap;html=1;aspect=fixed;fontSize=32;" vertex="1" parent="1">
          <mxGeometry x="710" y="860" width="80" height="80" as="geometry" />
        </mxCell>
        <mxCell id="JwIK93oX0tThSIfr5X6w-234" value="unit === &#39;quarter&#39; || unit === &#39;season&#39;" style="text;whiteSpace=wrap;" vertex="1" parent="1">
          <mxGeometry x="760" y="840" width="200" height="20" as="geometry" />
        </mxCell>
        <mxCell id="JwIK93oX0tThSIfr5X6w-248" style="edgeStyle=orthogonalEdgeStyle;rounded=0;orthogonalLoop=1;jettySize=auto;html=1;entryX=0.5;entryY=0;entryDx=0;entryDy=0;" edge="1" parent="1" source="JwIK93oX0tThSIfr5X6w-235" target="JwIK93oX0tThSIfr5X6w-245">
          <mxGeometry relative="1" as="geometry" />
        </mxCell>
        <mxCell id="JwIK93oX0tThSIfr5X6w-235" value="12" style="ellipse;whiteSpace=wrap;html=1;aspect=fixed;fontSize=32;" vertex="1" parent="1">
          <mxGeometry x="590" y="960" width="80" height="80" as="geometry" />
        </mxCell>
        <mxCell id="JwIK93oX0tThSIfr5X6w-236" style="edgeStyle=orthogonalEdgeStyle;rounded=0;orthogonalLoop=1;jettySize=auto;html=1;entryX=0.45;entryY=0.025;entryDx=0;entryDy=0;entryPerimeter=0;" edge="1" parent="1" source="JwIK93oX0tThSIfr5X6w-231" target="JwIK93oX0tThSIfr5X6w-235">
          <mxGeometry relative="1" as="geometry" />
        </mxCell>
        <mxCell id="JwIK93oX0tThSIfr5X6w-237" value="True" style="edgeLabel;html=1;align=center;verticalAlign=middle;resizable=0;points=[];" connectable="0" vertex="1" parent="JwIK93oX0tThSIfr5X6w-236">
          <mxGeometry x="-0.4755" y="-2" relative="1" as="geometry">
            <mxPoint as="offset" />
          </mxGeometry>
        </mxCell>
        <mxCell id="JwIK93oX0tThSIfr5X6w-238" value="s.epoch += ms.month * (num * 3)" style="text;whiteSpace=wrap;" vertex="1" parent="1">
          <mxGeometry x="630" y="940" width="220" height="40" as="geometry" />
        </mxCell>
        <mxCell id="JwIK93oX0tThSIfr5X6w-239" value="13" style="ellipse;whiteSpace=wrap;html=1;aspect=fixed;fontSize=32;" vertex="1" parent="1">
          <mxGeometry x="870" y="960" width="80" height="80" as="geometry" />
        </mxCell>
        <mxCell id="JwIK93oX0tThSIfr5X6w-241" value="unit === &#39;quarterhour&#39;" style="text;whiteSpace=wrap;" vertex="1" parent="1">
          <mxGeometry x="920" y="940" width="120" height="20" as="geometry" />
        </mxCell>
        <mxCell id="JwIK93oX0tThSIfr5X6w-430" style="edgeStyle=orthogonalEdgeStyle;rounded=0;orthogonalLoop=1;jettySize=auto;html=1;entryX=1;entryY=0.5;entryDx=0;entryDy=0;" edge="1" parent="1" source="JwIK93oX0tThSIfr5X6w-242" target="JwIK93oX0tThSIfr5X6w-245">
          <mxGeometry relative="1" as="geometry" />
        </mxCell>
        <mxCell id="JwIK93oX0tThSIfr5X6w-242" value="14" style="ellipse;whiteSpace=wrap;html=1;aspect=fixed;fontSize=32;" vertex="1" parent="1">
          <mxGeometry x="770" y="1060" width="80" height="80" as="geometry" />
        </mxCell>
        <mxCell id="JwIK93oX0tThSIfr5X6w-243" style="edgeStyle=orthogonalEdgeStyle;rounded=0;orthogonalLoop=1;jettySize=auto;html=1;entryX=0.379;entryY=0.034;entryDx=0;entryDy=0;entryPerimeter=0;" edge="1" parent="1" source="JwIK93oX0tThSIfr5X6w-239" target="JwIK93oX0tThSIfr5X6w-242">
          <mxGeometry relative="1" as="geometry" />
        </mxCell>
        <mxCell id="JwIK93oX0tThSIfr5X6w-244" value="True" style="edgeLabel;html=1;align=center;verticalAlign=middle;resizable=0;points=[];" connectable="0" vertex="1" parent="JwIK93oX0tThSIfr5X6w-243">
          <mxGeometry x="-0.2492" y="1" relative="1" as="geometry">
            <mxPoint as="offset" />
          </mxGeometry>
        </mxCell>
        <mxCell id="JwIK93oX0tThSIfr5X6w-253" style="edgeStyle=orthogonalEdgeStyle;rounded=0;orthogonalLoop=1;jettySize=auto;html=1;entryX=0.5;entryY=0;entryDx=0;entryDy=0;" edge="1" parent="1" source="JwIK93oX0tThSIfr5X6w-245" target="JwIK93oX0tThSIfr5X6w-252">
          <mxGeometry relative="1" as="geometry">
            <Array as="points">
              <mxPoint x="535" y="1300" />
            </Array>
          </mxGeometry>
        </mxCell>
        <mxCell id="JwIK93oX0tThSIfr5X6w-254" value="True" style="edgeLabel;html=1;align=center;verticalAlign=middle;resizable=0;points=[];" connectable="0" vertex="1" parent="JwIK93oX0tThSIfr5X6w-253">
          <mxGeometry x="-0.5121" y="-1" relative="1" as="geometry">
            <mxPoint as="offset" />
          </mxGeometry>
        </mxCell>
        <mxCell id="JwIK93oX0tThSIfr5X6w-264" style="edgeStyle=orthogonalEdgeStyle;rounded=0;orthogonalLoop=1;jettySize=auto;html=1;entryX=0.5;entryY=0;entryDx=0;entryDy=0;" edge="1" parent="1" source="JwIK93oX0tThSIfr5X6w-245" target="JwIK93oX0tThSIfr5X6w-262">
          <mxGeometry relative="1" as="geometry">
            <Array as="points">
              <mxPoint x="660" y="1430" />
              <mxPoint x="660" y="1430" />
            </Array>
          </mxGeometry>
        </mxCell>
        <mxCell id="JwIK93oX0tThSIfr5X6w-265" value="False" style="edgeLabel;html=1;align=center;verticalAlign=middle;resizable=0;points=[];" connectable="0" vertex="1" parent="JwIK93oX0tThSIfr5X6w-264">
          <mxGeometry x="-0.7384" y="-3" relative="1" as="geometry">
            <mxPoint as="offset" />
          </mxGeometry>
        </mxCell>
        <mxCell id="JwIK93oX0tThSIfr5X6w-245" value="15" style="ellipse;whiteSpace=wrap;html=1;aspect=fixed;fontSize=32;" vertex="1" parent="1">
          <mxGeometry x="590" y="1240" width="80" height="80" as="geometry" />
        </mxCell>
        <mxCell id="JwIK93oX0tThSIfr5X6w-246" style="edgeStyle=orthogonalEdgeStyle;rounded=0;orthogonalLoop=1;jettySize=auto;html=1;entryX=1.015;entryY=0.58;entryDx=0;entryDy=0;entryPerimeter=0;" edge="1" parent="1" source="JwIK93oX0tThSIfr5X6w-239" target="JwIK93oX0tThSIfr5X6w-245">
          <mxGeometry relative="1" as="geometry">
            <mxPoint x="683" y="1286" as="targetPoint" />
            <Array as="points">
              <mxPoint x="910" y="1286" />
            </Array>
          </mxGeometry>
        </mxCell>
        <mxCell id="JwIK93oX0tThSIfr5X6w-247" value="False" style="edgeLabel;html=1;align=center;verticalAlign=middle;resizable=0;points=[];" connectable="0" vertex="1" parent="JwIK93oX0tThSIfr5X6w-246">
          <mxGeometry x="-0.8466" relative="1" as="geometry">
            <mxPoint as="offset" />
          </mxGeometry>
        </mxCell>
        <mxCell id="JwIK93oX0tThSIfr5X6w-251" value="if (keep[unit])" style="text;whiteSpace=wrap;" vertex="1" parent="1">
          <mxGeometry x="640" y="1220" width="100" height="40" as="geometry" />
        </mxCell>
        <mxCell id="JwIK93oX0tThSIfr5X6w-284" style="edgeStyle=orthogonalEdgeStyle;rounded=0;orthogonalLoop=1;jettySize=auto;html=1;entryX=0;entryY=0;entryDx=0;entryDy=0;" edge="1" parent="1" source="JwIK93oX0tThSIfr5X6w-252" target="JwIK93oX0tThSIfr5X6w-262">
          <mxGeometry relative="1" as="geometry" />
        </mxCell>
        <mxCell id="JwIK93oX0tThSIfr5X6w-285" value="False" style="edgeLabel;html=1;align=center;verticalAlign=middle;resizable=0;points=[];" connectable="0" vertex="1" parent="JwIK93oX0tThSIfr5X6w-284">
          <mxGeometry x="-0.6833" y="-2" relative="1" as="geometry">
            <mxPoint as="offset" />
          </mxGeometry>
        </mxCell>
        <mxCell id="JwIK93oX0tThSIfr5X6w-252" value="16" style="ellipse;whiteSpace=wrap;html=1;aspect=fixed;fontSize=32;" vertex="1" parent="1">
          <mxGeometry x="495" y="1360" width="80" height="80" as="geometry" />
        </mxCell>
        <mxCell id="JwIK93oX0tThSIfr5X6w-255" value="i &amp;lt; keep[unit].length" style="text;html=1;align=center;verticalAlign=middle;resizable=0;points=[];autosize=1;strokeColor=none;fillColor=none;" vertex="1" parent="1">
          <mxGeometry x="410" y="1338" width="130" height="30" as="geometry" />
        </mxCell>
        <mxCell id="JwIK93oX0tThSIfr5X6w-260" style="edgeStyle=orthogonalEdgeStyle;rounded=0;orthogonalLoop=1;jettySize=auto;html=1;" edge="1" parent="1" source="JwIK93oX0tThSIfr5X6w-256" target="JwIK93oX0tThSIfr5X6w-252">
          <mxGeometry relative="1" as="geometry" />
        </mxCell>
        <mxCell id="JwIK93oX0tThSIfr5X6w-261" value="i++" style="edgeLabel;html=1;align=center;verticalAlign=middle;resizable=0;points=[];" connectable="0" vertex="1" parent="JwIK93oX0tThSIfr5X6w-260">
          <mxGeometry x="-0.7565" y="-1" relative="1" as="geometry">
            <mxPoint as="offset" />
          </mxGeometry>
        </mxCell>
        <mxCell id="JwIK93oX0tThSIfr5X6w-256" value="17" style="ellipse;whiteSpace=wrap;html=1;aspect=fixed;fontSize=32;" vertex="1" parent="1">
          <mxGeometry x="410" y="1470" width="80" height="80" as="geometry" />
        </mxCell>
        <mxCell id="JwIK93oX0tThSIfr5X6w-257" style="edgeStyle=orthogonalEdgeStyle;rounded=0;orthogonalLoop=1;jettySize=auto;html=1;entryX=0.375;entryY=0.05;entryDx=0;entryDy=0;entryPerimeter=0;" edge="1" parent="1" source="JwIK93oX0tThSIfr5X6w-252" target="JwIK93oX0tThSIfr5X6w-256">
          <mxGeometry relative="1" as="geometry" />
        </mxCell>
        <mxCell id="JwIK93oX0tThSIfr5X6w-258" value="True" style="edgeLabel;html=1;align=center;verticalAlign=middle;resizable=0;points=[];" connectable="0" vertex="1" parent="JwIK93oX0tThSIfr5X6w-257">
          <mxGeometry x="-0.5504" y="1" relative="1" as="geometry">
            <mxPoint as="offset" />
          </mxGeometry>
        </mxCell>
        <mxCell id="JwIK93oX0tThSIfr5X6w-259" value="want[u] = old[u]()" style="text;whiteSpace=wrap;" vertex="1" parent="1">
          <mxGeometry x="340" y="1450" width="100" height="30" as="geometry" />
        </mxCell>
        <mxCell id="JwIK93oX0tThSIfr5X6w-269" style="edgeStyle=orthogonalEdgeStyle;rounded=0;orthogonalLoop=1;jettySize=auto;html=1;entryX=0.5;entryY=0;entryDx=0;entryDy=0;" edge="1" parent="1" source="JwIK93oX0tThSIfr5X6w-262" target="JwIK93oX0tThSIfr5X6w-267">
          <mxGeometry relative="1" as="geometry">
            <Array as="points">
              <mxPoint x="540" y="1600" />
            </Array>
          </mxGeometry>
        </mxCell>
        <mxCell id="JwIK93oX0tThSIfr5X6w-270" value="True" style="edgeLabel;html=1;align=center;verticalAlign=middle;resizable=0;points=[];" connectable="0" vertex="1" parent="JwIK93oX0tThSIfr5X6w-269">
          <mxGeometry x="-0.3446" relative="1" as="geometry">
            <mxPoint as="offset" />
          </mxGeometry>
        </mxCell>
        <mxCell id="JwIK93oX0tThSIfr5X6w-273" style="edgeStyle=orthogonalEdgeStyle;rounded=0;orthogonalLoop=1;jettySize=auto;html=1;entryX=0.5;entryY=0;entryDx=0;entryDy=0;" edge="1" parent="1" source="JwIK93oX0tThSIfr5X6w-262" target="JwIK93oX0tThSIfr5X6w-268">
          <mxGeometry relative="1" as="geometry">
            <Array as="points">
              <mxPoint x="670" y="1650" />
              <mxPoint x="670" y="1650" />
            </Array>
          </mxGeometry>
        </mxCell>
        <mxCell id="JwIK93oX0tThSIfr5X6w-283" value="False" style="edgeLabel;html=1;align=center;verticalAlign=middle;resizable=0;points=[];" connectable="0" vertex="1" parent="JwIK93oX0tThSIfr5X6w-273">
          <mxGeometry x="-0.7152" y="-3" relative="1" as="geometry">
            <mxPoint x="3" y="4" as="offset" />
          </mxGeometry>
        </mxCell>
        <mxCell id="JwIK93oX0tThSIfr5X6w-262" value="18" style="ellipse;whiteSpace=wrap;html=1;aspect=fixed;fontSize=32;" vertex="1" parent="1">
          <mxGeometry x="620" y="1540" width="80" height="80" as="geometry" />
        </mxCell>
        <mxCell id="JwIK93oX0tThSIfr5X6w-266" value="if (dstAwareUnits[unit])" style="text;whiteSpace=wrap;" vertex="1" parent="1">
          <mxGeometry x="670" y="1520" width="160" height="40" as="geometry" />
        </mxCell>
        <mxCell id="JwIK93oX0tThSIfr5X6w-272" style="edgeStyle=orthogonalEdgeStyle;rounded=0;orthogonalLoop=1;jettySize=auto;html=1;entryX=0;entryY=0.5;entryDx=0;entryDy=0;" edge="1" parent="1" source="JwIK93oX0tThSIfr5X6w-267" target="JwIK93oX0tThSIfr5X6w-268">
          <mxGeometry relative="1" as="geometry">
            <Array as="points">
              <mxPoint x="540" y="1780" />
            </Array>
          </mxGeometry>
        </mxCell>
        <mxCell id="JwIK93oX0tThSIfr5X6w-267" value="19" style="ellipse;whiteSpace=wrap;html=1;aspect=fixed;fontSize=32;" vertex="1" parent="1">
          <mxGeometry x="500" y="1650" width="80" height="80" as="geometry" />
        </mxCell>
        <mxCell id="JwIK93oX0tThSIfr5X6w-276" style="edgeStyle=orthogonalEdgeStyle;rounded=0;orthogonalLoop=1;jettySize=auto;html=1;" edge="1" parent="1" source="JwIK93oX0tThSIfr5X6w-268" target="JwIK93oX0tThSIfr5X6w-275">
          <mxGeometry relative="1" as="geometry">
            <Array as="points">
              <mxPoint x="540" y="1800" />
            </Array>
          </mxGeometry>
        </mxCell>
        <mxCell id="JwIK93oX0tThSIfr5X6w-277" value="True" style="edgeLabel;html=1;align=center;verticalAlign=middle;resizable=0;points=[];" connectable="0" vertex="1" parent="JwIK93oX0tThSIfr5X6w-276">
          <mxGeometry x="-0.182" y="-1" relative="1" as="geometry">
            <mxPoint as="offset" />
          </mxGeometry>
        </mxCell>
        <mxCell id="JwIK93oX0tThSIfr5X6w-281" style="edgeStyle=orthogonalEdgeStyle;rounded=0;orthogonalLoop=1;jettySize=auto;html=1;entryX=0.5;entryY=0;entryDx=0;entryDy=0;" edge="1" parent="1" source="JwIK93oX0tThSIfr5X6w-268" target="JwIK93oX0tThSIfr5X6w-279">
          <mxGeometry relative="1" as="geometry" />
        </mxCell>
        <mxCell id="JwIK93oX0tThSIfr5X6w-282" value="False" style="edgeLabel;html=1;align=center;verticalAlign=middle;resizable=0;points=[];" connectable="0" vertex="1" parent="JwIK93oX0tThSIfr5X6w-281">
          <mxGeometry x="-0.48" y="2" relative="1" as="geometry">
            <mxPoint as="offset" />
          </mxGeometry>
        </mxCell>
        <mxCell id="JwIK93oX0tThSIfr5X6w-268" value="20" style="ellipse;whiteSpace=wrap;html=1;aspect=fixed;fontSize=32;" vertex="1" parent="1">
          <mxGeometry x="630" y="1740" width="80" height="80" as="geometry" />
        </mxCell>
        <mxCell id="JwIK93oX0tThSIfr5X6w-271" value="const diff = old.timezone().current.offset - s.timezone().current.offset&#xa;s.epoch += diff * 3600 * 1000" style="text;whiteSpace=wrap;" vertex="1" parent="1">
          <mxGeometry x="170" y="1625" width="370" height="50" as="geometry" />
        </mxCell>
        <mxCell id="JwIK93oX0tThSIfr5X6w-274" value="(unit === &#39;month&#39;)" style="text;whiteSpace=wrap;" vertex="1" parent="1">
          <mxGeometry x="675" y="1720" width="130" height="40" as="geometry" />
        </mxCell>
        <mxCell id="JwIK93oX0tThSIfr5X6w-280" style="edgeStyle=orthogonalEdgeStyle;rounded=0;orthogonalLoop=1;jettySize=auto;html=1;entryX=0;entryY=0.5;entryDx=0;entryDy=0;" edge="1" parent="1" source="JwIK93oX0tThSIfr5X6w-275" target="JwIK93oX0tThSIfr5X6w-279">
          <mxGeometry relative="1" as="geometry">
            <Array as="points">
              <mxPoint x="540" y="1960" />
            </Array>
          </mxGeometry>
        </mxCell>
        <mxCell id="JwIK93oX0tThSIfr5X6w-275" value="21" style="ellipse;whiteSpace=wrap;html=1;aspect=fixed;fontSize=32;" vertex="1" parent="1">
          <mxGeometry x="500" y="1840" width="80" height="80" as="geometry" />
        </mxCell>
        <mxCell id="JwIK93oX0tThSIfr5X6w-278" value="want = months(want, old)" style="text;whiteSpace=wrap;" vertex="1" parent="1">
          <mxGeometry x="390" y="1820" width="150" height="20" as="geometry" />
        </mxCell>
        <mxCell id="JwIK93oX0tThSIfr5X6w-288" style="edgeStyle=orthogonalEdgeStyle;rounded=0;orthogonalLoop=1;jettySize=auto;html=1;entryX=0.5;entryY=0;entryDx=0;entryDy=0;" edge="1" parent="1" source="JwIK93oX0tThSIfr5X6w-279" target="JwIK93oX0tThSIfr5X6w-287">
          <mxGeometry relative="1" as="geometry">
            <Array as="points">
              <mxPoint x="540" y="1980" />
            </Array>
          </mxGeometry>
        </mxCell>
        <mxCell id="JwIK93oX0tThSIfr5X6w-289" value="True" style="edgeLabel;html=1;align=center;verticalAlign=middle;resizable=0;points=[];" connectable="0" vertex="1" parent="JwIK93oX0tThSIfr5X6w-288">
          <mxGeometry x="-0.3458" relative="1" as="geometry">
            <mxPoint as="offset" />
          </mxGeometry>
        </mxCell>
        <mxCell id="JwIK93oX0tThSIfr5X6w-300" style="edgeStyle=orthogonalEdgeStyle;rounded=0;orthogonalLoop=1;jettySize=auto;html=1;entryX=0.5;entryY=0;entryDx=0;entryDy=0;" edge="1" parent="1" source="JwIK93oX0tThSIfr5X6w-279" target="JwIK93oX0tThSIfr5X6w-295">
          <mxGeometry relative="1" as="geometry" />
        </mxCell>
        <mxCell id="JwIK93oX0tThSIfr5X6w-301" value="False" style="edgeLabel;html=1;align=center;verticalAlign=middle;resizable=0;points=[];" connectable="0" vertex="1" parent="JwIK93oX0tThSIfr5X6w-300">
          <mxGeometry x="-0.8697" y="2" relative="1" as="geometry">
            <mxPoint as="offset" />
          </mxGeometry>
        </mxCell>
        <mxCell id="JwIK93oX0tThSIfr5X6w-279" value="22" style="ellipse;whiteSpace=wrap;html=1;aspect=fixed;fontSize=32;" vertex="1" parent="1">
          <mxGeometry x="630" y="1920" width="80" height="80" as="geometry" />
        </mxCell>
        <mxCell id="JwIK93oX0tThSIfr5X6w-286" value="(unit === &#39;week&#39;)" style="text;whiteSpace=wrap;" vertex="1" parent="1">
          <mxGeometry x="685" y="1900" width="120" height="40" as="geometry" />
        </mxCell>
        <mxCell id="JwIK93oX0tThSIfr5X6w-291" style="edgeStyle=orthogonalEdgeStyle;rounded=0;orthogonalLoop=1;jettySize=auto;html=1;" edge="1" parent="1" source="JwIK93oX0tThSIfr5X6w-287" target="JwIK93oX0tThSIfr5X6w-290">
          <mxGeometry relative="1" as="geometry" />
        </mxCell>
        <mxCell id="JwIK93oX0tThSIfr5X6w-292" value="True" style="edgeLabel;html=1;align=center;verticalAlign=middle;resizable=0;points=[];" connectable="0" vertex="1" parent="JwIK93oX0tThSIfr5X6w-291">
          <mxGeometry x="-0.6714" y="2" relative="1" as="geometry">
            <mxPoint x="-7" y="-2" as="offset" />
          </mxGeometry>
        </mxCell>
        <mxCell id="JwIK93oX0tThSIfr5X6w-287" value="23" style="ellipse;whiteSpace=wrap;html=1;aspect=fixed;fontSize=32;" vertex="1" parent="1">
          <mxGeometry x="500" y="2060" width="80" height="80" as="geometry" />
        </mxCell>
        <mxCell id="JwIK93oX0tThSIfr5X6w-290" value="24" style="ellipse;whiteSpace=wrap;html=1;aspect=fixed;fontSize=32;" vertex="1" parent="1">
          <mxGeometry x="410" y="2190" width="80" height="80" as="geometry" />
        </mxCell>
        <mxCell id="JwIK93oX0tThSIfr5X6w-293" value="(sum &lt;= 28 &amp;&amp; sum &gt; 1)" style="text;whiteSpace=wrap;" vertex="1" parent="1">
          <mxGeometry x="395" y="2040" width="170" height="40" as="geometry" />
        </mxCell>
        <mxCell id="JwIK93oX0tThSIfr5X6w-294" value="want.date = sum" style="text;whiteSpace=wrap;" vertex="1" parent="1">
          <mxGeometry x="345" y="2170" width="120" height="40" as="geometry" />
        </mxCell>
        <mxCell id="JwIK93oX0tThSIfr5X6w-304" style="edgeStyle=orthogonalEdgeStyle;rounded=0;orthogonalLoop=1;jettySize=auto;html=1;" edge="1" parent="1" source="JwIK93oX0tThSIfr5X6w-295" target="JwIK93oX0tThSIfr5X6w-303">
          <mxGeometry relative="1" as="geometry">
            <Array as="points">
              <mxPoint x="550" y="2310" />
            </Array>
          </mxGeometry>
        </mxCell>
        <mxCell id="JwIK93oX0tThSIfr5X6w-305" value="True" style="edgeLabel;html=1;align=center;verticalAlign=middle;resizable=0;points=[];" connectable="0" vertex="1" parent="JwIK93oX0tThSIfr5X6w-304">
          <mxGeometry x="-0.4324" y="3" relative="1" as="geometry">
            <mxPoint as="offset" />
          </mxGeometry>
        </mxCell>
        <mxCell id="JwIK93oX0tThSIfr5X6w-308" style="edgeStyle=orthogonalEdgeStyle;rounded=0;orthogonalLoop=1;jettySize=auto;html=1;entryX=0.5;entryY=0;entryDx=0;entryDy=0;" edge="1" parent="1" source="JwIK93oX0tThSIfr5X6w-295" target="JwIK93oX0tThSIfr5X6w-307">
          <mxGeometry relative="1" as="geometry">
            <Array as="points">
              <mxPoint x="745" y="2290" />
            </Array>
          </mxGeometry>
        </mxCell>
        <mxCell id="JwIK93oX0tThSIfr5X6w-309" value="False" style="edgeLabel;html=1;align=center;verticalAlign=middle;resizable=0;points=[];" connectable="0" vertex="1" parent="JwIK93oX0tThSIfr5X6w-308">
          <mxGeometry x="-0.5797" y="-1" relative="1" as="geometry">
            <mxPoint as="offset" />
          </mxGeometry>
        </mxCell>
        <mxCell id="JwIK93oX0tThSIfr5X6w-295" value="25" style="ellipse;whiteSpace=wrap;html=1;aspect=fixed;fontSize=32;" vertex="1" parent="1">
          <mxGeometry x="630" y="2250" width="80" height="80" as="geometry" />
        </mxCell>
        <mxCell id="JwIK93oX0tThSIfr5X6w-297" style="edgeStyle=orthogonalEdgeStyle;rounded=0;orthogonalLoop=1;jettySize=auto;html=1;" edge="1" parent="1" source="JwIK93oX0tThSIfr5X6w-290" target="JwIK93oX0tThSIfr5X6w-295">
          <mxGeometry relative="1" as="geometry">
            <mxPoint x="610" y="2330" as="targetPoint" />
            <Array as="points">
              <mxPoint x="450" y="2290" />
            </Array>
          </mxGeometry>
        </mxCell>
        <mxCell id="JwIK93oX0tThSIfr5X6w-298" style="edgeStyle=orthogonalEdgeStyle;rounded=0;orthogonalLoop=1;jettySize=auto;html=1;entryX=0;entryY=0;entryDx=0;entryDy=0;" edge="1" parent="1" source="JwIK93oX0tThSIfr5X6w-287" target="JwIK93oX0tThSIfr5X6w-295">
          <mxGeometry relative="1" as="geometry" />
        </mxCell>
        <mxCell id="JwIK93oX0tThSIfr5X6w-299" value="False" style="edgeLabel;html=1;align=center;verticalAlign=middle;resizable=0;points=[];" connectable="0" vertex="1" parent="JwIK93oX0tThSIfr5X6w-298">
          <mxGeometry x="-0.7375" relative="1" as="geometry">
            <mxPoint as="offset" />
          </mxGeometry>
        </mxCell>
        <mxCell id="JwIK93oX0tThSIfr5X6w-302" value="(unit === &#39;weekend&#39; &amp;&amp; s.dayName() !== &#39;saturday&#39;)" style="text;whiteSpace=wrap;" vertex="1" parent="1">
          <mxGeometry x="685" y="2230" width="310" height="40" as="geometry" />
        </mxCell>
        <mxCell id="JwIK93oX0tThSIfr5X6w-396" style="edgeStyle=orthogonalEdgeStyle;rounded=0;orthogonalLoop=1;jettySize=auto;html=1;entryX=0;entryY=0.5;entryDx=0;entryDy=0;" edge="1" parent="1" source="JwIK93oX0tThSIfr5X6w-303" target="JwIK93oX0tThSIfr5X6w-395">
          <mxGeometry relative="1" as="geometry">
            <Array as="points">
              <mxPoint x="200" y="2410" />
              <mxPoint x="200" y="3450" />
            </Array>
          </mxGeometry>
        </mxCell>
        <mxCell id="JwIK93oX0tThSIfr5X6w-303" value="26" style="ellipse;whiteSpace=wrap;html=1;aspect=fixed;fontSize=32;" vertex="1" parent="1">
          <mxGeometry x="510" y="2370" width="80" height="80" as="geometry" />
        </mxCell>
        <mxCell id="JwIK93oX0tThSIfr5X6w-306" value="s = s.day(&#39;saturday&#39;, true)" style="text;whiteSpace=wrap;" vertex="1" parent="1">
          <mxGeometry x="405" y="2350" width="145" height="30" as="geometry" />
        </mxCell>
        <mxCell id="JwIK93oX0tThSIfr5X6w-312" style="edgeStyle=orthogonalEdgeStyle;rounded=0;orthogonalLoop=1;jettySize=auto;html=1;entryX=0.5;entryY=0;entryDx=0;entryDy=0;" edge="1" parent="1" source="JwIK93oX0tThSIfr5X6w-307" target="JwIK93oX0tThSIfr5X6w-311">
          <mxGeometry relative="1" as="geometry" />
        </mxCell>
        <mxCell id="JwIK93oX0tThSIfr5X6w-313" value="True" style="edgeLabel;html=1;align=center;verticalAlign=middle;resizable=0;points=[];" connectable="0" vertex="1" parent="JwIK93oX0tThSIfr5X6w-312">
          <mxGeometry x="-0.4837" y="1" relative="1" as="geometry">
            <mxPoint as="offset" />
          </mxGeometry>
        </mxCell>
        <mxCell id="JwIK93oX0tThSIfr5X6w-332" style="edgeStyle=orthogonalEdgeStyle;rounded=0;orthogonalLoop=1;jettySize=auto;html=1;entryX=0.5;entryY=0;entryDx=0;entryDy=0;" edge="1" parent="1" source="JwIK93oX0tThSIfr5X6w-307" target="JwIK93oX0tThSIfr5X6w-331">
          <mxGeometry relative="1" as="geometry" />
        </mxCell>
        <mxCell id="JwIK93oX0tThSIfr5X6w-333" value="False" style="edgeLabel;html=1;align=center;verticalAlign=middle;resizable=0;points=[];" connectable="0" vertex="1" parent="JwIK93oX0tThSIfr5X6w-332">
          <mxGeometry x="-0.7662" relative="1" as="geometry">
            <mxPoint as="offset" />
          </mxGeometry>
        </mxCell>
        <mxCell id="JwIK93oX0tThSIfr5X6w-307" value="27" style="ellipse;whiteSpace=wrap;html=1;aspect=fixed;fontSize=32;" vertex="1" parent="1">
          <mxGeometry x="705" y="2370" width="80" height="80" as="geometry" />
        </mxCell>
        <mxCell id="JwIK93oX0tThSIfr5X6w-310" value="(unit === &#39;date&#39;)" style="text;whiteSpace=wrap;" vertex="1" parent="1">
          <mxGeometry x="750" y="2350" width="120" height="40" as="geometry" />
        </mxCell>
        <mxCell id="JwIK93oX0tThSIfr5X6w-316" style="edgeStyle=orthogonalEdgeStyle;rounded=0;orthogonalLoop=1;jettySize=auto;html=1;entryX=0.5;entryY=0;entryDx=0;entryDy=0;" edge="1" parent="1" source="JwIK93oX0tThSIfr5X6w-311" target="JwIK93oX0tThSIfr5X6w-315">
          <mxGeometry relative="1" as="geometry" />
        </mxCell>
        <mxCell id="JwIK93oX0tThSIfr5X6w-317" value="True" style="edgeLabel;html=1;align=center;verticalAlign=middle;resizable=0;points=[];" connectable="0" vertex="1" parent="JwIK93oX0tThSIfr5X6w-316">
          <mxGeometry x="-0.5458" y="-1" relative="1" as="geometry">
            <mxPoint as="offset" />
          </mxGeometry>
        </mxCell>
        <mxCell id="JwIK93oX0tThSIfr5X6w-320" style="edgeStyle=orthogonalEdgeStyle;rounded=0;orthogonalLoop=1;jettySize=auto;html=1;entryX=0.5;entryY=0;entryDx=0;entryDy=0;" edge="1" parent="1" source="JwIK93oX0tThSIfr5X6w-311" target="JwIK93oX0tThSIfr5X6w-319">
          <mxGeometry relative="1" as="geometry" />
        </mxCell>
        <mxCell id="JwIK93oX0tThSIfr5X6w-321" value="False" style="edgeLabel;html=1;align=center;verticalAlign=middle;resizable=0;points=[];" connectable="0" vertex="1" parent="JwIK93oX0tThSIfr5X6w-320">
          <mxGeometry x="-0.5269" y="-2" relative="1" as="geometry">
            <mxPoint as="offset" />
          </mxGeometry>
        </mxCell>
        <mxCell id="JwIK93oX0tThSIfr5X6w-311" value="28" style="ellipse;whiteSpace=wrap;html=1;aspect=fixed;fontSize=32;" vertex="1" parent="1">
          <mxGeometry x="620" y="2460" width="80" height="80" as="geometry" />
        </mxCell>
        <mxCell id="JwIK93oX0tThSIfr5X6w-314" value="(num &lt; 0)" style="text;whiteSpace=wrap;" vertex="1" parent="1">
          <mxGeometry x="600" y="2440" width="90" height="40" as="geometry" />
        </mxCell>
        <mxCell id="JwIK93oX0tThSIfr5X6w-324" style="edgeStyle=orthogonalEdgeStyle;rounded=0;orthogonalLoop=1;jettySize=auto;html=1;entryX=0;entryY=0.5;entryDx=0;entryDy=0;" edge="1" parent="1" source="JwIK93oX0tThSIfr5X6w-315" target="JwIK93oX0tThSIfr5X6w-323">
          <mxGeometry relative="1" as="geometry">
            <Array as="points">
              <mxPoint x="570" y="2690" />
            </Array>
          </mxGeometry>
        </mxCell>
        <mxCell id="JwIK93oX0tThSIfr5X6w-315" value="29" style="ellipse;whiteSpace=wrap;html=1;aspect=fixed;fontSize=32;" vertex="1" parent="1">
          <mxGeometry x="530" y="2550" width="80" height="80" as="geometry" />
        </mxCell>
        <mxCell id="JwIK93oX0tThSIfr5X6w-318" value="want = daysBack(want, old, num)" style="text;whiteSpace=wrap;" vertex="1" parent="1">
          <mxGeometry x="380" y="2530" width="210" height="40" as="geometry" />
        </mxCell>
        <mxCell id="JwIK93oX0tThSIfr5X6w-325" style="edgeStyle=orthogonalEdgeStyle;rounded=0;orthogonalLoop=1;jettySize=auto;html=1;entryX=1;entryY=0.5;entryDx=0;entryDy=0;" edge="1" parent="1" source="JwIK93oX0tThSIfr5X6w-319" target="JwIK93oX0tThSIfr5X6w-323">
          <mxGeometry relative="1" as="geometry">
            <Array as="points">
              <mxPoint x="750" y="2690" />
            </Array>
          </mxGeometry>
        </mxCell>
        <mxCell id="JwIK93oX0tThSIfr5X6w-319" value="30" style="ellipse;whiteSpace=wrap;html=1;aspect=fixed;fontSize=32;" vertex="1" parent="1">
          <mxGeometry x="710" y="2550" width="80" height="80" as="geometry" />
        </mxCell>
        <mxCell id="JwIK93oX0tThSIfr5X6w-322" value="want = days(want, old, sum)" style="text;whiteSpace=wrap;" vertex="1" parent="1">
          <mxGeometry x="760" y="2530" width="190" height="40" as="geometry" />
        </mxCell>
        <mxCell id="JwIK93oX0tThSIfr5X6w-328" style="edgeStyle=orthogonalEdgeStyle;rounded=0;orthogonalLoop=1;jettySize=auto;html=1;entryX=0.5;entryY=0;entryDx=0;entryDy=0;" edge="1" parent="1" source="JwIK93oX0tThSIfr5X6w-323" target="JwIK93oX0tThSIfr5X6w-327">
          <mxGeometry relative="1" as="geometry">
            <Array as="points">
              <mxPoint x="560" y="2710" />
            </Array>
          </mxGeometry>
        </mxCell>
        <mxCell id="JwIK93oX0tThSIfr5X6w-329" value="True" style="edgeLabel;html=1;align=center;verticalAlign=middle;resizable=0;points=[];" connectable="0" vertex="1" parent="JwIK93oX0tThSIfr5X6w-328">
          <mxGeometry x="-0.3824" y="-2" relative="1" as="geometry">
            <mxPoint as="offset" />
          </mxGeometry>
        </mxCell>
        <mxCell id="JwIK93oX0tThSIfr5X6w-323" value="31" style="ellipse;whiteSpace=wrap;html=1;aspect=fixed;fontSize=32;" vertex="1" parent="1">
          <mxGeometry x="625" y="2650" width="80" height="80" as="geometry" />
        </mxCell>
        <mxCell id="JwIK93oX0tThSIfr5X6w-326" value="(num !== 0 &amp;&amp; old.isSame(s, &#39;day&#39;))" style="text;whiteSpace=wrap;" vertex="1" parent="1">
          <mxGeometry x="700" y="2650" width="230" height="40" as="geometry" />
        </mxCell>
        <mxCell id="JwIK93oX0tThSIfr5X6w-397" style="edgeStyle=orthogonalEdgeStyle;rounded=0;orthogonalLoop=1;jettySize=auto;html=1;entryX=0;entryY=0.5;entryDx=0;entryDy=0;" edge="1" parent="1" source="JwIK93oX0tThSIfr5X6w-327" target="JwIK93oX0tThSIfr5X6w-395">
          <mxGeometry relative="1" as="geometry">
            <Array as="points">
              <mxPoint x="550" y="3450" />
            </Array>
          </mxGeometry>
        </mxCell>
        <mxCell id="JwIK93oX0tThSIfr5X6w-327" value="32" style="ellipse;whiteSpace=wrap;html=1;aspect=fixed;fontSize=32;" vertex="1" parent="1">
          <mxGeometry x="520" y="2740" width="80" height="80" as="geometry" />
        </mxCell>
        <mxCell id="JwIK93oX0tThSIfr5X6w-330" value="want.date = old.date() + num" style="text;whiteSpace=wrap;" vertex="1" parent="1">
          <mxGeometry x="395" y="2720" width="190" height="40" as="geometry" />
        </mxCell>
        <mxCell id="JwIK93oX0tThSIfr5X6w-337" style="edgeStyle=orthogonalEdgeStyle;rounded=0;orthogonalLoop=1;jettySize=auto;html=1;entryX=0.5;entryY=0;entryDx=0;entryDy=0;" edge="1" parent="1" source="JwIK93oX0tThSIfr5X6w-331" target="JwIK93oX0tThSIfr5X6w-335">
          <mxGeometry relative="1" as="geometry" />
        </mxCell>
        <mxCell id="JwIK93oX0tThSIfr5X6w-338" value="True" style="edgeLabel;html=1;align=center;verticalAlign=middle;resizable=0;points=[];" connectable="0" vertex="1" parent="JwIK93oX0tThSIfr5X6w-337">
          <mxGeometry x="-0.3833" y="-1" relative="1" as="geometry">
            <mxPoint as="offset" />
          </mxGeometry>
        </mxCell>
        <mxCell id="JwIK93oX0tThSIfr5X6w-359" style="edgeStyle=orthogonalEdgeStyle;rounded=0;orthogonalLoop=1;jettySize=auto;html=1;entryX=0.5;entryY=0;entryDx=0;entryDy=0;" edge="1" parent="1" source="JwIK93oX0tThSIfr5X6w-331" target="JwIK93oX0tThSIfr5X6w-358">
          <mxGeometry relative="1" as="geometry" />
        </mxCell>
        <mxCell id="JwIK93oX0tThSIfr5X6w-360" value="False" style="edgeLabel;html=1;align=center;verticalAlign=middle;resizable=0;points=[];" connectable="0" vertex="1" parent="JwIK93oX0tThSIfr5X6w-359">
          <mxGeometry x="-0.5756" y="-3" relative="1" as="geometry">
            <mxPoint x="-27" y="-3" as="offset" />
          </mxGeometry>
        </mxCell>
        <mxCell id="JwIK93oX0tThSIfr5X6w-331" value="33" style="ellipse;whiteSpace=wrap;html=1;aspect=fixed;fontSize=32;" vertex="1" parent="1">
          <mxGeometry x="1020" y="2470" width="80" height="80" as="geometry" />
        </mxCell>
        <mxCell id="JwIK93oX0tThSIfr5X6w-334" value="unit === &#39;quarter&#39;" style="text;whiteSpace=wrap;" vertex="1" parent="1">
          <mxGeometry x="1070" y="2450" width="120" height="40" as="geometry" />
        </mxCell>
        <mxCell id="JwIK93oX0tThSIfr5X6w-340" style="edgeStyle=orthogonalEdgeStyle;rounded=0;orthogonalLoop=1;jettySize=auto;html=1;entryX=0.5;entryY=0;entryDx=0;entryDy=0;" edge="1" parent="1" source="JwIK93oX0tThSIfr5X6w-335" target="JwIK93oX0tThSIfr5X6w-339">
          <mxGeometry relative="1" as="geometry">
            <Array as="points">
              <mxPoint x="910" y="2600" />
            </Array>
          </mxGeometry>
        </mxCell>
        <mxCell id="JwIK93oX0tThSIfr5X6w-341" value="True" style="edgeLabel;html=1;align=center;verticalAlign=middle;resizable=0;points=[];" connectable="0" vertex="1" parent="JwIK93oX0tThSIfr5X6w-340">
          <mxGeometry x="-0.3571" y="-2" relative="1" as="geometry">
            <mxPoint as="offset" />
          </mxGeometry>
        </mxCell>
        <mxCell id="JwIK93oX0tThSIfr5X6w-344" style="edgeStyle=orthogonalEdgeStyle;rounded=0;orthogonalLoop=1;jettySize=auto;html=1;entryX=0.5;entryY=0;entryDx=0;entryDy=0;" edge="1" parent="1" source="JwIK93oX0tThSIfr5X6w-335" target="JwIK93oX0tThSIfr5X6w-343">
          <mxGeometry relative="1" as="geometry">
            <Array as="points">
              <mxPoint x="1050" y="2600" />
            </Array>
          </mxGeometry>
        </mxCell>
        <mxCell id="JwIK93oX0tThSIfr5X6w-345" value="False" style="edgeLabel;html=1;align=center;verticalAlign=middle;resizable=0;points=[];" connectable="0" vertex="1" parent="JwIK93oX0tThSIfr5X6w-344">
          <mxGeometry x="-0.5778" y="-2" relative="1" as="geometry">
            <mxPoint as="offset" />
          </mxGeometry>
        </mxCell>
        <mxCell id="JwIK93oX0tThSIfr5X6w-335" value="34" style="ellipse;whiteSpace=wrap;html=1;aspect=fixed;fontSize=32;" vertex="1" parent="1">
          <mxGeometry x="930" y="2560" width="80" height="80" as="geometry" />
        </mxCell>
        <mxCell id="JwIK93oX0tThSIfr5X6w-336" value="(want.month &lt; 0)" style="text;whiteSpace=wrap;" vertex="1" parent="1">
          <mxGeometry x="995" y="2550" width="130" height="20" as="geometry" />
        </mxCell>
        <mxCell id="JwIK93oX0tThSIfr5X6w-354" style="edgeStyle=orthogonalEdgeStyle;rounded=0;orthogonalLoop=1;jettySize=auto;html=1;entryX=0;entryY=0.5;entryDx=0;entryDy=0;" edge="1" parent="1" source="JwIK93oX0tThSIfr5X6w-339" target="JwIK93oX0tThSIfr5X6w-351">
          <mxGeometry relative="1" as="geometry" />
        </mxCell>
        <mxCell id="JwIK93oX0tThSIfr5X6w-339" value="35" style="ellipse;whiteSpace=wrap;html=1;aspect=fixed;fontSize=32;" vertex="1" parent="1">
          <mxGeometry x="870" y="2720" width="80" height="80" as="geometry" />
        </mxCell>
        <mxCell id="JwIK93oX0tThSIfr5X6w-342" value="want.month = remainder&#xa;want.year += years" style="text;whiteSpace=wrap;" vertex="1" parent="1">
          <mxGeometry x="770" y="2700" width="140" height="40" as="geometry" />
        </mxCell>
        <mxCell id="JwIK93oX0tThSIfr5X6w-348" style="edgeStyle=orthogonalEdgeStyle;rounded=0;orthogonalLoop=1;jettySize=auto;html=1;entryX=0.5;entryY=0;entryDx=0;entryDy=0;" edge="1" parent="1" source="JwIK93oX0tThSIfr5X6w-343" target="JwIK93oX0tThSIfr5X6w-347">
          <mxGeometry relative="1" as="geometry">
            <Array as="points">
              <mxPoint x="980" y="2750" />
            </Array>
          </mxGeometry>
        </mxCell>
        <mxCell id="JwIK93oX0tThSIfr5X6w-349" value="True" style="edgeLabel;html=1;align=center;verticalAlign=middle;resizable=0;points=[];" connectable="0" vertex="1" parent="JwIK93oX0tThSIfr5X6w-348">
          <mxGeometry x="-0.5667" y="4" relative="1" as="geometry">
            <mxPoint as="offset" />
          </mxGeometry>
        </mxCell>
        <mxCell id="JwIK93oX0tThSIfr5X6w-357" style="edgeStyle=orthogonalEdgeStyle;rounded=0;orthogonalLoop=1;jettySize=auto;html=1;entryX=1;entryY=0.5;entryDx=0;entryDy=0;" edge="1" parent="1" source="JwIK93oX0tThSIfr5X6w-343" target="JwIK93oX0tThSIfr5X6w-351">
          <mxGeometry relative="1" as="geometry">
            <Array as="points">
              <mxPoint x="1200" y="2750" />
              <mxPoint x="1200" y="2990" />
            </Array>
          </mxGeometry>
        </mxCell>
        <mxCell id="JwIK93oX0tThSIfr5X6w-343" value="36" style="ellipse;whiteSpace=wrap;html=1;aspect=fixed;fontSize=32;" vertex="1" parent="1">
          <mxGeometry x="1010" y="2710" width="80" height="80" as="geometry" />
        </mxCell>
        <mxCell id="JwIK93oX0tThSIfr5X6w-346" value="(want.month &gt;= 12)" style="text;whiteSpace=wrap;" vertex="1" parent="1">
          <mxGeometry x="1060" y="2690" width="140" height="40" as="geometry" />
        </mxCell>
        <mxCell id="JwIK93oX0tThSIfr5X6w-352" style="edgeStyle=orthogonalEdgeStyle;rounded=0;orthogonalLoop=1;jettySize=auto;html=1;entryX=0.5;entryY=0;entryDx=0;entryDy=0;" edge="1" parent="1" source="JwIK93oX0tThSIfr5X6w-347" target="JwIK93oX0tThSIfr5X6w-351">
          <mxGeometry relative="1" as="geometry" />
        </mxCell>
        <mxCell id="JwIK93oX0tThSIfr5X6w-347" value="37" style="ellipse;whiteSpace=wrap;html=1;aspect=fixed;fontSize=32;" vertex="1" parent="1">
          <mxGeometry x="940" y="2820" width="80" height="80" as="geometry" />
        </mxCell>
        <mxCell id="JwIK93oX0tThSIfr5X6w-350" value="want.month = want.month % 12&#xa;want.year += years" style="text;whiteSpace=wrap;" vertex="1" parent="1">
          <mxGeometry x="1010" y="2800" width="190" height="40" as="geometry" />
        </mxCell>
        <mxCell id="JwIK93oX0tThSIfr5X6w-398" style="edgeStyle=orthogonalEdgeStyle;rounded=0;orthogonalLoop=1;jettySize=auto;html=1;entryX=0.5;entryY=0;entryDx=0;entryDy=0;" edge="1" parent="1" source="JwIK93oX0tThSIfr5X6w-351" target="JwIK93oX0tThSIfr5X6w-395">
          <mxGeometry relative="1" as="geometry" />
        </mxCell>
        <mxCell id="JwIK93oX0tThSIfr5X6w-351" value="38" style="ellipse;whiteSpace=wrap;html=1;aspect=fixed;fontSize=32;" vertex="1" parent="1">
          <mxGeometry x="940" y="2950" width="80" height="80" as="geometry" />
        </mxCell>
        <mxCell id="JwIK93oX0tThSIfr5X6w-355" value="want.date = old.date()" style="text;whiteSpace=wrap;" vertex="1" parent="1">
          <mxGeometry x="995" y="2930" width="150" height="40" as="geometry" />
        </mxCell>
        <mxCell id="JwIK93oX0tThSIfr5X6w-380" style="edgeStyle=orthogonalEdgeStyle;rounded=0;orthogonalLoop=1;jettySize=auto;html=1;entryX=0.5;entryY=0;entryDx=0;entryDy=0;" edge="1" parent="1" source="JwIK93oX0tThSIfr5X6w-358" target="JwIK93oX0tThSIfr5X6w-379">
          <mxGeometry relative="1" as="geometry">
            <Array as="points">
              <mxPoint x="1690" y="2580" />
              <mxPoint x="1690" y="2990" />
              <mxPoint x="1590" y="2990" />
            </Array>
          </mxGeometry>
        </mxCell>
        <mxCell id="JwIK93oX0tThSIfr5X6w-381" value="False" style="edgeLabel;html=1;align=center;verticalAlign=middle;resizable=0;points=[];" connectable="0" vertex="1" parent="JwIK93oX0tThSIfr5X6w-380">
          <mxGeometry x="-0.9632" y="1" relative="1" as="geometry">
            <mxPoint x="16" y="1" as="offset" />
          </mxGeometry>
        </mxCell>
        <mxCell id="JwIK93oX0tThSIfr5X6w-358" value="39" style="ellipse;whiteSpace=wrap;html=1;aspect=fixed;fontSize=32;" vertex="1" parent="1">
          <mxGeometry x="1440" y="2540" width="80" height="80" as="geometry" />
        </mxCell>
        <mxCell id="JwIK93oX0tThSIfr5X6w-361" value="(unit === &#39;year&#39;)" style="text;whiteSpace=wrap;" vertex="1" parent="1">
          <mxGeometry x="1490" y="2520" width="120" height="40" as="geometry" />
        </mxCell>
        <mxCell id="JwIK93oX0tThSIfr5X6w-367" style="edgeStyle=orthogonalEdgeStyle;rounded=0;orthogonalLoop=1;jettySize=auto;html=1;" edge="1" parent="1" source="JwIK93oX0tThSIfr5X6w-362" target="JwIK93oX0tThSIfr5X6w-366">
          <mxGeometry relative="1" as="geometry">
            <Array as="points">
              <mxPoint x="1310" y="2660" />
            </Array>
          </mxGeometry>
        </mxCell>
        <mxCell id="JwIK93oX0tThSIfr5X6w-368" value="True" style="edgeLabel;html=1;align=center;verticalAlign=middle;resizable=0;points=[];" connectable="0" vertex="1" parent="JwIK93oX0tThSIfr5X6w-367">
          <mxGeometry x="-0.5936" y="3" relative="1" as="geometry">
            <mxPoint as="offset" />
          </mxGeometry>
        </mxCell>
        <mxCell id="JwIK93oX0tThSIfr5X6w-371" style="edgeStyle=orthogonalEdgeStyle;rounded=0;orthogonalLoop=1;jettySize=auto;html=1;entryX=0.5;entryY=0;entryDx=0;entryDy=0;" edge="1" parent="1" source="JwIK93oX0tThSIfr5X6w-362" target="JwIK93oX0tThSIfr5X6w-370">
          <mxGeometry relative="1" as="geometry" />
        </mxCell>
        <mxCell id="JwIK93oX0tThSIfr5X6w-372" value="False" style="edgeLabel;html=1;align=center;verticalAlign=middle;resizable=0;points=[];" connectable="0" vertex="1" parent="JwIK93oX0tThSIfr5X6w-371">
          <mxGeometry x="-0.7351" y="2" relative="1" as="geometry">
            <mxPoint as="offset" />
          </mxGeometry>
        </mxCell>
        <mxCell id="JwIK93oX0tThSIfr5X6w-362" value="40" style="ellipse;whiteSpace=wrap;html=1;aspect=fixed;fontSize=32;" vertex="1" parent="1">
          <mxGeometry x="1350" y="2630" width="80" height="80" as="geometry" />
        </mxCell>
        <mxCell id="JwIK93oX0tThSIfr5X6w-363" style="edgeStyle=orthogonalEdgeStyle;rounded=0;orthogonalLoop=1;jettySize=auto;html=1;entryX=0.375;entryY=0;entryDx=0;entryDy=0;entryPerimeter=0;" edge="1" parent="1" source="JwIK93oX0tThSIfr5X6w-358" target="JwIK93oX0tThSIfr5X6w-362">
          <mxGeometry relative="1" as="geometry" />
        </mxCell>
        <mxCell id="JwIK93oX0tThSIfr5X6w-364" value="True" style="edgeLabel;html=1;align=center;verticalAlign=middle;resizable=0;points=[];" connectable="0" vertex="1" parent="JwIK93oX0tThSIfr5X6w-363">
          <mxGeometry x="-0.43" y="-1" relative="1" as="geometry">
            <mxPoint as="offset" />
          </mxGeometry>
        </mxCell>
        <mxCell id="JwIK93oX0tThSIfr5X6w-365" value="(haveYear &lt; wantYear)" style="text;whiteSpace=wrap;" vertex="1" parent="1">
          <mxGeometry x="1250" y="2610" width="150" height="40" as="geometry" />
        </mxCell>
        <mxCell id="JwIK93oX0tThSIfr5X6w-399" style="edgeStyle=orthogonalEdgeStyle;rounded=0;orthogonalLoop=1;jettySize=auto;html=1;entryX=1;entryY=0.5;entryDx=0;entryDy=0;" edge="1" parent="1" source="JwIK93oX0tThSIfr5X6w-366" target="JwIK93oX0tThSIfr5X6w-395">
          <mxGeometry relative="1" as="geometry">
            <Array as="points">
              <mxPoint x="1250" y="2770" />
              <mxPoint x="1250" y="3450" />
            </Array>
          </mxGeometry>
        </mxCell>
        <mxCell id="JwIK93oX0tThSIfr5X6w-366" value="41" style="ellipse;whiteSpace=wrap;html=1;aspect=fixed;fontSize=32;" vertex="1" parent="1">
          <mxGeometry x="1270" y="2730" width="80" height="80" as="geometry" />
        </mxCell>
        <mxCell id="JwIK93oX0tThSIfr5X6w-369" value="s.epoch += Math.abs(ms.day * toAdd)" style="text;whiteSpace=wrap;" vertex="1" parent="1">
          <mxGeometry x="1320" y="2710" width="240" height="40" as="geometry" />
        </mxCell>
        <mxCell id="JwIK93oX0tThSIfr5X6w-376" style="edgeStyle=orthogonalEdgeStyle;rounded=0;orthogonalLoop=1;jettySize=auto;html=1;entryX=0.5;entryY=0;entryDx=0;entryDy=0;" edge="1" parent="1" source="JwIK93oX0tThSIfr5X6w-370" target="JwIK93oX0tThSIfr5X6w-375">
          <mxGeometry relative="1" as="geometry">
            <Array as="points">
              <mxPoint x="1470" y="2780" />
            </Array>
          </mxGeometry>
        </mxCell>
        <mxCell id="JwIK93oX0tThSIfr5X6w-377" value="True" style="edgeLabel;html=1;align=center;verticalAlign=middle;resizable=0;points=[];" connectable="0" vertex="1" parent="JwIK93oX0tThSIfr5X6w-376">
          <mxGeometry x="-0.4868" relative="1" as="geometry">
            <mxPoint as="offset" />
          </mxGeometry>
        </mxCell>
        <mxCell id="JwIK93oX0tThSIfr5X6w-402" style="edgeStyle=orthogonalEdgeStyle;rounded=0;orthogonalLoop=1;jettySize=auto;html=1;entryX=1;entryY=0.5;entryDx=0;entryDy=0;" edge="1" parent="1" source="JwIK93oX0tThSIfr5X6w-370" target="JwIK93oX0tThSIfr5X6w-395">
          <mxGeometry relative="1" as="geometry">
            <Array as="points">
              <mxPoint x="1550" y="3020" />
              <mxPoint x="1250" y="3020" />
              <mxPoint x="1250" y="3450" />
            </Array>
          </mxGeometry>
        </mxCell>
        <mxCell id="JwIK93oX0tThSIfr5X6w-403" value="False" style="edgeLabel;html=1;align=center;verticalAlign=middle;resizable=0;points=[];" connectable="0" vertex="1" parent="JwIK93oX0tThSIfr5X6w-402">
          <mxGeometry x="-0.8999" y="-1" relative="1" as="geometry">
            <mxPoint y="1" as="offset" />
          </mxGeometry>
        </mxCell>
        <mxCell id="JwIK93oX0tThSIfr5X6w-370" value="42" style="ellipse;whiteSpace=wrap;html=1;aspect=fixed;fontSize=32;" vertex="1" parent="1">
          <mxGeometry x="1510" y="2750" width="80" height="80" as="geometry" />
        </mxCell>
        <mxCell id="JwIK93oX0tThSIfr5X6w-374" value="(haveYear &gt; wantYear)" style="text;whiteSpace=wrap;" vertex="1" parent="1">
          <mxGeometry x="1550" y="2720" width="150" height="40" as="geometry" />
        </mxCell>
        <mxCell id="JwIK93oX0tThSIfr5X6w-400" style="edgeStyle=orthogonalEdgeStyle;rounded=0;orthogonalLoop=1;jettySize=auto;html=1;entryX=1;entryY=0.5;entryDx=0;entryDy=0;" edge="1" parent="1" source="JwIK93oX0tThSIfr5X6w-375" target="JwIK93oX0tThSIfr5X6w-395">
          <mxGeometry relative="1" as="geometry">
            <Array as="points">
              <mxPoint x="1250" y="2870" />
              <mxPoint x="1250" y="3450" />
            </Array>
          </mxGeometry>
        </mxCell>
        <mxCell id="JwIK93oX0tThSIfr5X6w-375" value="43" style="ellipse;whiteSpace=wrap;html=1;aspect=fixed;fontSize=32;" vertex="1" parent="1">
          <mxGeometry x="1430" y="2830" width="80" height="80" as="geometry" />
        </mxCell>
        <mxCell id="JwIK93oX0tThSIfr5X6w-378" value="s.epoch += ms.day * toAdd" style="text;whiteSpace=wrap;" vertex="1" parent="1">
          <mxGeometry x="1310" y="2810" width="180" height="40" as="geometry" />
        </mxCell>
        <mxCell id="JwIK93oX0tThSIfr5X6w-384" style="edgeStyle=orthogonalEdgeStyle;rounded=0;orthogonalLoop=1;jettySize=auto;html=1;entryX=0.5;entryY=0;entryDx=0;entryDy=0;" edge="1" parent="1" source="JwIK93oX0tThSIfr5X6w-379" target="JwIK93oX0tThSIfr5X6w-383">
          <mxGeometry relative="1" as="geometry" />
        </mxCell>
        <mxCell id="JwIK93oX0tThSIfr5X6w-385" value="True" style="edgeLabel;html=1;align=center;verticalAlign=middle;resizable=0;points=[];" connectable="0" vertex="1" parent="JwIK93oX0tThSIfr5X6w-384">
          <mxGeometry x="-0.4315" y="-2" relative="1" as="geometry">
            <mxPoint as="offset" />
          </mxGeometry>
        </mxCell>
        <mxCell id="JwIK93oX0tThSIfr5X6w-388" style="edgeStyle=orthogonalEdgeStyle;rounded=0;orthogonalLoop=1;jettySize=auto;html=1;entryX=0.5;entryY=0;entryDx=0;entryDy=0;" edge="1" parent="1" source="JwIK93oX0tThSIfr5X6w-379" target="JwIK93oX0tThSIfr5X6w-387">
          <mxGeometry relative="1" as="geometry" />
        </mxCell>
        <mxCell id="JwIK93oX0tThSIfr5X6w-389" value="False" style="edgeLabel;html=1;align=center;verticalAlign=middle;resizable=0;points=[];" connectable="0" vertex="1" parent="JwIK93oX0tThSIfr5X6w-388">
          <mxGeometry x="-0.3817" y="-1" relative="1" as="geometry">
            <mxPoint as="offset" />
          </mxGeometry>
        </mxCell>
        <mxCell id="JwIK93oX0tThSIfr5X6w-379" value="44" style="ellipse;whiteSpace=wrap;html=1;aspect=fixed;fontSize=32;" vertex="1" parent="1">
          <mxGeometry x="1550" y="3070" width="80" height="80" as="geometry" />
        </mxCell>
        <mxCell id="JwIK93oX0tThSIfr5X6w-382" value="(unit === &#39;decade&#39;)" style="text;whiteSpace=wrap;" vertex="1" parent="1">
          <mxGeometry x="1480" y="3050" width="130" height="40" as="geometry" />
        </mxCell>
        <mxCell id="JwIK93oX0tThSIfr5X6w-431" style="edgeStyle=orthogonalEdgeStyle;rounded=0;orthogonalLoop=1;jettySize=auto;html=1;entryX=1;entryY=0.5;entryDx=0;entryDy=0;exitX=-0.027;exitY=0.609;exitDx=0;exitDy=0;exitPerimeter=0;" edge="1" parent="1" source="JwIK93oX0tThSIfr5X6w-383" target="JwIK93oX0tThSIfr5X6w-395">
          <mxGeometry relative="1" as="geometry">
            <Array as="points">
              <mxPoint x="1428" y="3200" />
              <mxPoint x="1250" y="3200" />
              <mxPoint x="1250" y="3450" />
            </Array>
          </mxGeometry>
        </mxCell>
        <mxCell id="JwIK93oX0tThSIfr5X6w-383" value="45" style="ellipse;whiteSpace=wrap;html=1;aspect=fixed;fontSize=32;" vertex="1" parent="1">
          <mxGeometry x="1430" y="3150" width="80" height="80" as="geometry" />
        </mxCell>
        <mxCell id="JwIK93oX0tThSIfr5X6w-386" value="want.year = s.year() + 10" style="text;whiteSpace=wrap;" vertex="1" parent="1">
          <mxGeometry x="1330" y="3130" width="170" height="40" as="geometry" />
        </mxCell>
        <mxCell id="JwIK93oX0tThSIfr5X6w-392" style="edgeStyle=orthogonalEdgeStyle;rounded=0;orthogonalLoop=1;jettySize=auto;html=1;entryX=0.5;entryY=0;entryDx=0;entryDy=0;" edge="1" parent="1" source="JwIK93oX0tThSIfr5X6w-387" target="JwIK93oX0tThSIfr5X6w-391">
          <mxGeometry relative="1" as="geometry" />
        </mxCell>
        <mxCell id="JwIK93oX0tThSIfr5X6w-393" value="True" style="edgeLabel;html=1;align=center;verticalAlign=middle;resizable=0;points=[];" connectable="0" vertex="1" parent="JwIK93oX0tThSIfr5X6w-392">
          <mxGeometry x="-0.5617" relative="1" as="geometry">
            <mxPoint as="offset" />
          </mxGeometry>
        </mxCell>
        <mxCell id="JwIK93oX0tThSIfr5X6w-404" style="edgeStyle=orthogonalEdgeStyle;rounded=0;orthogonalLoop=1;jettySize=auto;html=1;entryX=1;entryY=0.5;entryDx=0;entryDy=0;" edge="1" parent="1" source="JwIK93oX0tThSIfr5X6w-387" target="JwIK93oX0tThSIfr5X6w-395">
          <mxGeometry relative="1" as="geometry">
            <Array as="points">
              <mxPoint x="1680" y="3450" />
            </Array>
          </mxGeometry>
        </mxCell>
        <mxCell id="JwIK93oX0tThSIfr5X6w-387" value="46" style="ellipse;whiteSpace=wrap;html=1;aspect=fixed;fontSize=32;" vertex="1" parent="1">
          <mxGeometry x="1640" y="3150" width="80" height="80" as="geometry" />
        </mxCell>
        <mxCell id="JwIK93oX0tThSIfr5X6w-390" value="(unit === &#39;century&#39;)" style="text;whiteSpace=wrap;" vertex="1" parent="1">
          <mxGeometry x="1700" y="3130" width="130" height="40" as="geometry" />
        </mxCell>
        <mxCell id="JwIK93oX0tThSIfr5X6w-432" style="edgeStyle=orthogonalEdgeStyle;rounded=0;orthogonalLoop=1;jettySize=auto;html=1;entryX=1;entryY=0.5;entryDx=0;entryDy=0;" edge="1" parent="1" source="JwIK93oX0tThSIfr5X6w-391" target="JwIK93oX0tThSIfr5X6w-395">
          <mxGeometry relative="1" as="geometry">
            <Array as="points">
              <mxPoint x="1250" y="3290" />
              <mxPoint x="1250" y="3450" />
            </Array>
          </mxGeometry>
        </mxCell>
        <mxCell id="JwIK93oX0tThSIfr5X6w-391" value="47" style="ellipse;whiteSpace=wrap;html=1;aspect=fixed;fontSize=32;" vertex="1" parent="1">
          <mxGeometry x="1550" y="3250" width="80" height="80" as="geometry" />
        </mxCell>
        <mxCell id="JwIK93oX0tThSIfr5X6w-394" value="want.year = s.year() + 100" style="text;whiteSpace=wrap;" vertex="1" parent="1">
          <mxGeometry x="1400" y="3260" width="170" height="40" as="geometry" />
        </mxCell>
        <mxCell id="JwIK93oX0tThSIfr5X6w-407" style="edgeStyle=orthogonalEdgeStyle;rounded=0;orthogonalLoop=1;jettySize=auto;html=1;entryX=0.5;entryY=0;entryDx=0;entryDy=0;" edge="1" parent="1" source="JwIK93oX0tThSIfr5X6w-395" target="JwIK93oX0tThSIfr5X6w-406">
          <mxGeometry relative="1" as="geometry">
            <Array as="points">
              <mxPoint x="810" y="3480" />
            </Array>
          </mxGeometry>
        </mxCell>
        <mxCell id="JwIK93oX0tThSIfr5X6w-408" value="True" style="edgeLabel;html=1;align=center;verticalAlign=middle;resizable=0;points=[];" connectable="0" vertex="1" parent="JwIK93oX0tThSIfr5X6w-407">
          <mxGeometry x="-0.2683" y="1" relative="1" as="geometry">
            <mxPoint as="offset" />
          </mxGeometry>
        </mxCell>
        <mxCell id="JwIK93oX0tThSIfr5X6w-415" style="edgeStyle=orthogonalEdgeStyle;rounded=0;orthogonalLoop=1;jettySize=auto;html=1;entryX=0.5;entryY=0;entryDx=0;entryDy=0;" edge="1" parent="1" source="JwIK93oX0tThSIfr5X6w-395" target="JwIK93oX0tThSIfr5X6w-414">
          <mxGeometry relative="1" as="geometry" />
        </mxCell>
        <mxCell id="JwIK93oX0tThSIfr5X6w-416" value="False" style="edgeLabel;html=1;align=center;verticalAlign=middle;resizable=0;points=[];" connectable="0" vertex="1" parent="JwIK93oX0tThSIfr5X6w-415">
          <mxGeometry x="-0.4113" relative="1" as="geometry">
            <mxPoint y="1" as="offset" />
          </mxGeometry>
        </mxCell>
        <mxCell id="JwIK93oX0tThSIfr5X6w-395" value="48" style="ellipse;whiteSpace=wrap;html=1;aspect=fixed;fontSize=32;" vertex="1" parent="1">
          <mxGeometry x="880" y="3410" width="80" height="80" as="geometry" />
        </mxCell>
        <mxCell id="JwIK93oX0tThSIfr5X6w-405" value="(keepDate[unit])" style="text;whiteSpace=wrap;" vertex="1" parent="1">
          <mxGeometry x="940" y="3390" width="120" height="40" as="geometry" />
        </mxCell>
        <mxCell id="JwIK93oX0tThSIfr5X6w-411" style="edgeStyle=orthogonalEdgeStyle;rounded=0;orthogonalLoop=1;jettySize=auto;html=1;entryX=0.5;entryY=0;entryDx=0;entryDy=0;" edge="1" parent="1" source="JwIK93oX0tThSIfr5X6w-406" target="JwIK93oX0tThSIfr5X6w-410">
          <mxGeometry relative="1" as="geometry" />
        </mxCell>
        <mxCell id="JwIK93oX0tThSIfr5X6w-412" value="True" style="edgeLabel;html=1;align=center;verticalAlign=middle;resizable=0;points=[];" connectable="0" vertex="1" parent="JwIK93oX0tThSIfr5X6w-411">
          <mxGeometry x="-0.4253" y="-4" relative="1" as="geometry">
            <mxPoint x="-1" as="offset" />
          </mxGeometry>
        </mxCell>
        <mxCell id="JwIK93oX0tThSIfr5X6w-417" style="edgeStyle=orthogonalEdgeStyle;rounded=0;orthogonalLoop=1;jettySize=auto;html=1;entryX=0;entryY=0;entryDx=0;entryDy=0;" edge="1" parent="1" source="JwIK93oX0tThSIfr5X6w-406" target="JwIK93oX0tThSIfr5X6w-414">
          <mxGeometry relative="1" as="geometry" />
        </mxCell>
        <mxCell id="JwIK93oX0tThSIfr5X6w-418" value="False" style="edgeLabel;html=1;align=center;verticalAlign=middle;resizable=0;points=[];" connectable="0" vertex="1" parent="JwIK93oX0tThSIfr5X6w-417">
          <mxGeometry x="-0.1447" y="1" relative="1" as="geometry">
            <mxPoint y="1" as="offset" />
          </mxGeometry>
        </mxCell>
        <mxCell id="JwIK93oX0tThSIfr5X6w-406" value="49" style="ellipse;whiteSpace=wrap;html=1;aspect=fixed;fontSize=32;" vertex="1" parent="1">
          <mxGeometry x="770" y="3530" width="80" height="80" as="geometry" />
        </mxCell>
        <mxCell id="JwIK93oX0tThSIfr5X6w-409" value="(want.date &gt; max)" style="text;whiteSpace=wrap;" vertex="1" parent="1">
          <mxGeometry x="690" y="3510" width="150" height="40" as="geometry" />
        </mxCell>
        <mxCell id="JwIK93oX0tThSIfr5X6w-419" style="edgeStyle=orthogonalEdgeStyle;rounded=0;orthogonalLoop=1;jettySize=auto;html=1;entryX=0;entryY=0.5;entryDx=0;entryDy=0;" edge="1" parent="1" source="JwIK93oX0tThSIfr5X6w-410" target="JwIK93oX0tThSIfr5X6w-414">
          <mxGeometry relative="1" as="geometry" />
        </mxCell>
        <mxCell id="JwIK93oX0tThSIfr5X6w-410" value="50" style="ellipse;whiteSpace=wrap;html=1;aspect=fixed;fontSize=32;" vertex="1" parent="1">
          <mxGeometry x="670" y="3630" width="80" height="80" as="geometry" />
        </mxCell>
        <mxCell id="JwIK93oX0tThSIfr5X6w-413" value="want.date = max" style="text;whiteSpace=wrap;" vertex="1" parent="1">
          <mxGeometry x="600" y="3610" width="120" height="40" as="geometry" />
        </mxCell>
        <mxCell id="JwIK93oX0tThSIfr5X6w-422" style="edgeStyle=orthogonalEdgeStyle;rounded=0;orthogonalLoop=1;jettySize=auto;html=1;entryX=0.5;entryY=0;entryDx=0;entryDy=0;" edge="1" parent="1" source="JwIK93oX0tThSIfr5X6w-414" target="JwIK93oX0tThSIfr5X6w-420">
          <mxGeometry relative="1" as="geometry">
            <Array as="points">
              <mxPoint x="765" y="3750" />
            </Array>
          </mxGeometry>
        </mxCell>
        <mxCell id="JwIK93oX0tThSIfr5X6w-423" value="True" style="edgeLabel;html=1;align=center;verticalAlign=middle;resizable=0;points=[];" connectable="0" vertex="1" parent="JwIK93oX0tThSIfr5X6w-422">
          <mxGeometry x="-0.6076" y="2" relative="1" as="geometry">
            <mxPoint as="offset" />
          </mxGeometry>
        </mxCell>
        <mxCell id="JwIK93oX0tThSIfr5X6w-414" value="51" style="ellipse;whiteSpace=wrap;html=1;aspect=fixed;fontSize=32;" vertex="1" parent="1">
          <mxGeometry x="880" y="3680" width="80" height="80" as="geometry" />
        </mxCell>
        <mxCell id="JwIK93oX0tThSIfr5X6w-425" style="edgeStyle=orthogonalEdgeStyle;rounded=0;orthogonalLoop=1;jettySize=auto;html=1;entryX=0;entryY=0.5;entryDx=0;entryDy=0;" edge="1" parent="1" source="JwIK93oX0tThSIfr5X6w-420" target="JwIK93oX0tThSIfr5X6w-424">
          <mxGeometry relative="1" as="geometry" />
        </mxCell>
        <mxCell id="JwIK93oX0tThSIfr5X6w-420" value="52" style="ellipse;whiteSpace=wrap;html=1;aspect=fixed;fontSize=32;" vertex="1" parent="1">
          <mxGeometry x="725" y="3800" width="80" height="80" as="geometry" />
        </mxCell>
        <mxCell id="JwIK93oX0tThSIfr5X6w-421" value="(Object.keys(want).length &gt; 1)" style="text;whiteSpace=wrap;" vertex="1" parent="1">
          <mxGeometry x="940" y="3670" width="200" height="40" as="geometry" />
        </mxCell>
        <mxCell id="JwIK93oX0tThSIfr5X6w-424" value="53" style="ellipse;whiteSpace=wrap;html=1;aspect=fixed;fontSize=32;strokeColor=#FF0000;" vertex="1" parent="1">
          <mxGeometry x="870" y="3860" width="80" height="80" as="geometry" />
        </mxCell>
        <mxCell id="JwIK93oX0tThSIfr5X6w-426" value="walkTo(s, want)" style="text;whiteSpace=wrap;" vertex="1" parent="1">
          <mxGeometry x="665" y="3780" width="120" height="40" as="geometry" />
        </mxCell>
        <mxCell id="JwIK93oX0tThSIfr5X6w-427" style="edgeStyle=orthogonalEdgeStyle;rounded=0;orthogonalLoop=1;jettySize=auto;html=1;entryX=0.742;entryY=0.055;entryDx=0;entryDy=0;entryPerimeter=0;" edge="1" parent="1" source="JwIK93oX0tThSIfr5X6w-414" target="JwIK93oX0tThSIfr5X6w-424">
          <mxGeometry relative="1" as="geometry" />
        </mxCell>
        <mxCell id="JwIK93oX0tThSIfr5X6w-428" value="False" style="edgeLabel;html=1;align=center;verticalAlign=middle;resizable=0;points=[];" connectable="0" vertex="1" parent="JwIK93oX0tThSIfr5X6w-427">
          <mxGeometry x="-0.5984" y="3" relative="1" as="geometry">
            <mxPoint as="offset" />
          </mxGeometry>
        </mxCell>
        <mxCell id="JwIK93oX0tThSIfr5X6w-429" value="s.epoch += ms.minute * 15 * num" style="text;whiteSpace=wrap;" vertex="1" parent="1">
          <mxGeometry x="670" y="1030" width="220" height="40" as="geometry" />
        </mxCell>
      </root>
    </mxGraphModel>
  </diagram>
</mxfile>
